<svg width="47" height="47" viewBox="0 0 47 47" fill="none" xmlns="http://www.w3.org/2000/svg">
<rect x="0.0500488" y="0.480957" width="46" height="46" fill="#020105"/>
<g clip-path="url(#clip0_94_1767)">
<rect width="25.2571" height="30.316" transform="translate(10.3888 7.84814)" fill="#020105"/>
<path d="M30.3563 24.0955C29.3896 23.5389 28.4564 22.9918 27.5126 22.4648C27.2377 22.3115 27.0738 22.1505 27.0939 21.8018C27.1131 21.476 26.9119 21.0525 27.0566 20.8427C27.184 20.6578 27.6602 20.7277 27.9745 20.6511C29.3216 20.3196 30.4043 19.6594 30.7626 18.2175C30.9638 17.4078 30.8632 16.6059 30.456 15.8633C30.2998 15.5788 30.3027 15.3843 30.5576 15.1208C31.0519 14.6101 31.4783 14.0343 31.9564 13.4565C32.6089 14.6255 33.1042 15.8509 33.1962 17.1769C33.2997 18.6678 33.3102 20.1672 33.2997 21.6619C33.2729 25.3545 33.9215 28.8967 35.5609 32.2319C35.5858 32.2827 35.5934 32.3421 35.6471 32.5299C34.4705 31.5881 33.3946 30.7277 32.2812 29.8366C31.4496 31.1751 30.6323 32.4925 29.7882 33.8521C28.9019 33.0272 28.0569 32.2396 27.1677 31.4118C25.765 33.6777 24.3968 35.8891 22.9893 38.1637C21.579 35.8833 20.2041 33.6605 18.8081 31.4041C17.9113 32.2434 17.0634 33.0358 16.1876 33.8559C15.356 32.5098 14.5406 31.1895 13.6994 29.827C12.5975 30.7104 11.5321 31.5651 10.391 32.4801C10.7225 31.6743 11.0358 30.9595 11.3117 30.2304C12.0495 28.2835 12.5132 26.2714 12.6014 24.1913C12.6761 22.4265 12.7096 20.6588 12.7029 18.892C12.6953 17.0217 13.091 15.2636 13.9686 13.6127C13.9907 13.5715 14.0194 13.5332 14.0568 13.4738C14.5924 14.0966 15.1136 14.6714 15.5878 15.2827C15.6702 15.3881 15.5965 15.666 15.5227 15.8317C14.9794 17.0572 14.9536 18.2452 15.8178 19.3346C16.5306 20.2333 17.5137 20.6463 18.6481 20.7201C18.7276 20.7249 18.8081 20.7201 18.8867 20.7277C18.9144 20.7306 18.9394 20.7603 18.9739 20.7833C18.9528 21.1723 18.9595 21.5709 18.8972 21.9589C18.8733 22.1122 18.7267 22.2904 18.5868 22.3738C17.6181 22.9515 16.637 23.5082 15.5764 24.1195C15.8628 24.2891 16.088 24.4232 16.3131 24.5564C16.4367 24.6292 16.5546 24.7183 16.6878 24.7681C19.0218 25.6467 20.183 27.5362 20.9342 29.7408C21.6135 31.7356 22.2181 33.7563 22.8562 35.7645C22.884 35.8527 22.9213 35.9379 23.0076 36.1669C23.1503 35.7521 23.2538 35.456 23.3534 35.159C24.0519 33.0655 24.7207 30.9614 25.4556 28.8804C26.1167 27.0092 27.3287 25.6142 29.2114 24.8486C29.5774 24.7001 29.9079 24.4663 30.2519 24.267C30.2874 24.2469 30.3008 24.1904 30.3563 24.0975V24.0955Z" fill="white"/>
<path d="M13.1907 9.59121C13.7387 9.99553 14.1718 10.3635 14.6508 10.6586C15.3388 11.082 15.5275 11.0533 16.1043 10.5206C18.0474 8.72985 20.3833 7.86467 22.9865 7.84838C25.698 7.83114 28.1096 8.75285 30.0824 10.6586C30.4043 10.9699 30.7013 11.0389 31.0539 10.8281C31.6086 10.4966 32.1442 10.1325 32.767 9.73109C32.3943 10.3443 32.0887 10.946 31.692 11.4816C29.9386 13.8481 27.7168 15.6772 25.1337 17.0856C24.852 17.2389 24.645 17.2399 24.3557 17.0694C23.4272 16.5213 22.4835 16.5577 21.5407 17.0818C21.3884 17.1661 21.1268 17.2188 20.9917 17.146C18.0359 15.5651 15.5122 13.4975 13.7272 10.6193C13.5394 10.3165 13.3947 9.98787 13.1897 9.59217L13.1907 9.59121Z" fill="white"/>
<path d="M26.9818 24.0984C24.4898 25.5586 23.8191 28.0651 22.9922 30.6194C22.1816 28.089 21.4966 25.5864 19.0294 24.1301C19.4232 23.902 19.7336 23.6769 20.0795 23.5341C20.527 23.3492 20.5988 23.0234 20.64 22.5923C20.7205 21.7462 20.7722 20.8715 21.0396 20.0772C21.2178 19.5483 21.692 19.0712 22.1357 18.6889C22.7038 18.1993 23.4128 18.2759 24.0222 18.7425C24.9075 19.4228 25.2515 20.3723 25.3463 21.4339C25.3818 21.8286 25.3827 22.2291 25.3645 22.6258C25.3463 23.0263 25.514 23.2879 25.8589 23.4699C26.2096 23.6548 26.5516 23.856 26.9818 24.0975V24.0984Z" fill="white"/>
<path d="M20.2287 18.6584C19.3194 19.1825 18.0537 19.1164 17.361 18.5138C16.8456 18.0644 16.7469 17.4838 17.0621 16.6665C18.1141 17.3286 19.1623 17.9878 20.2287 18.6594V18.6584Z" fill="white"/>
<path d="M25.7902 18.6756C26.8374 18.0154 27.8702 17.3649 28.9069 16.7114C29.3247 17.2307 29.1877 18.0691 28.5754 18.5443C27.852 19.1058 26.6065 19.1642 25.7902 18.6756Z" fill="white"/>
</g>
<defs>
<clipPath id="clip0_94_1767">
<rect width="25.2571" height="30.316" fill="white" transform="translate(10.3888 7.84814)"/>
</clipPath>
</defs>
</svg>
